<svg xmlns="http://www.w3.org/2000/svg" xmlns:xlink="http://www.w3.org/1999/xlink" width="500" height="500" viewBox="0 0 500 500" fill="none"><g opacity="1"  transform="translate(0 0)  rotate(0)"><mask id="bg-mask-0" fill="white"><use transform="translate(0 0)  rotate(0)" xlink:href="#path_0"></use></mask><g mask="url(#bg-mask-0)" ><g opacity="1"  transform="translate(50 68)  rotate(0)"><g opacity="1"  transform="translate(51.94843292236328 166.2321319580078)  rotate(0)"><g opacity="1"  transform="translate(0.0000152587890625 0)  rotate(0)"><g opacity="1"  transform="translate(0 0.000152587890625)  rotate(0)"></g><path id="Fill_9" fill-rule="evenodd" fill="url(#linear_0)" opacity="1" d="M0,15.58zM197.39,15.59zM0,15.58c0.04,-8.64 7.07,-15.61 15.71,-15.58h165.99c8.64,-0.03 15.66,6.95 15.69,15.59c-0.03,8.64 -7.06,15.61 -15.7,15.58h-165.98c-4.15,0.02 -8.14,-1.62 -11.08,-4.54c-2.95,-2.92 -4.61,-6.9 -4.63,-11.05z"></path></g></g><g opacity="1"  transform="translate(0 0)  rotate(0)"><g opacity="1"  transform="translate(0 0)  rotate(0)"><g opacity="1"  transform="translate(0 0.00014495849609375)  rotate(0)"></g><path id="Fill_11" fill-rule="evenodd" fill="url(#linear_1)" opacity="1" d="M233.52,31.42zM283.02,151.48zM81.9,181.69zM355.84,92.95zM66.06,197.4zM0,98.26zM50.18,181.69zM233.52,31.42c-26.11,-0.03 -51.78,6.69 -74.53,19.49h-52.58c34.22,-32.73 79.76,-50.97 127.11,-50.91c65.06,0.05 125.28,34.39 158.46,90.35l8.02,13.64l-109.49,62.49l-7.49,-15c-11.57,-23.15 -35.3,-37.7 -61.18,-37.52h-123.64c-10.73,20.96 -16.32,44.18 -16.3,67.73c-0.02,4.19 -1.69,8.19 -4.67,11.14c-2.97,2.95 -6.99,4.59 -11.17,4.57c-4.19,0.03 -8.22,-1.61 -11.2,-4.56c-2.97,-2.95 -4.66,-6.96 -4.68,-11.15c-0.02,-23.22 4.47,-46.22 13.22,-67.73h-47.55c-8.71,0.04 -15.81,-6.99 -15.85,-15.7c0.04,-8.72 7.13,-15.75 15.85,-15.72h64.1l0.07,-0.09h39.73l-0.1,0.09h102.2c31.93,-0.18 62.01,14.96 80.89,40.72l53.1,-30.31c-28.78,-38.66 -74.12,-61.47 -122.32,-61.53z"></path></g></g><g opacity="1"  transform="translate(0 166.23194885253906)  rotate(0)"><g opacity="1"  transform="translate(0 0.000030517578125)  rotate(0)"><g opacity="1"  transform="translate(0 0.00030517578125)  rotate(0)"></g><path id="Fill_13" fill-rule="evenodd" fill="url(#linear_2)" opacity="1" d="M0,99.15zM66.04,0zM81.88,15.71zM302.73,74.15zM391.98,107.06zM233.52,165.98zM233.52,197.39zM0,99.15c0.04,-8.71 7.13,-15.75 15.85,-15.71h47.55c-8.75,-21.51 -13.24,-44.51 -13.22,-67.73c0,-4.19 1.69,-8.2 4.66,-11.15c2.98,-2.94 7.01,-4.59 11.2,-4.56c4.18,-0.02 8.2,1.63 11.17,4.57c2.97,2.95 4.65,6.95 4.67,11.14c-0.02,23.55 5.56,46.76 16.3,67.72h123.67c25.88,0.18 49.61,-14.37 61.18,-37.52l7.48,-15l109.49,62.5l-8.02,13.65c-33.19,55.95 -93.4,90.28 -158.46,90.33c-47.33,0.07 -92.85,-18.16 -127.06,-50.86h52.62c22.73,12.78 48.37,19.47 74.44,19.45c48.19,-0.06 93.53,-22.87 122.32,-61.52l-53.11,-30.31c-18.88,25.75 -48.96,40.89 -80.89,40.71h-102.19c0.05,0.04 0.1,0.1 0.14,0.15h-39.74l-0.1,-0.15h-64.1c-8.72,0.03 -15.81,-7 -15.85,-15.71z"></path></g></g></g></g></g><defs><rect id="path_0" x="0" y="0" width="500" height="500" /><linearGradient id="linear_0" x1="0%" y1="50%" x2="100%" y2="50%" gradientUnits="objectBoundingBox"><stop offset="0" stop-color="#369ACF" stop-opacity="1" /><stop offset="1" stop-color="#265DA1" stop-opacity="1" /></linearGradient><linearGradient id="linear_1" x1="0%" y1="50%" x2="100%" y2="50%" gradientUnits="objectBoundingBox"><stop offset="0" stop-color="#369ACF" stop-opacity="1" /><stop offset="1" stop-color="#265DA1" stop-opacity="1" /></linearGradient><linearGradient id="linear_2" x1="0%" y1="50%" x2="100%" y2="50%" gradientUnits="objectBoundingBox"><stop offset="0" stop-color="#369ACF" stop-opacity="1" /><stop offset="1" stop-color="#265DA1" stop-opacity="1" /></linearGradient></defs></svg>